# xmcd
#
# Track frame offsets:
#	150
#	13944
#	30495
#	38345
#	59943
#	70687
# Disc length: 1165 seconds
# Revision: 1
# Processed by: cddbd v1.5.2PL0 Copyright (c) Steve Scherf et al.
#
# Submitted via: libkcddb 0.31
#
DISCID=49048b06
DTITLE=Little Angel and the Bonecrashers - Little Angel and the Bonecrashers
DYEAR=2004
DGENRE=Country
TTITLE0=Cotton Fields
TTITLE1=Rambonctious Boy
TTITLE2=Big River
TTITLE3=Wasting Time
TTITLE4=I Ain't Never
TTITLE5=Brown Eyed Girl
EXTD=
EXTT0=
EXTT1=
EXTT2=
EXTT3=
EXTT4=
EXTT5=
PLAYORDER=
